{"title":"My Stepmother Is an Alien 1988 720p WEB-DL SSloco","uid":11982745,"size":939588713,"categoryP":"video","categoryS":"hd___movies","magnet":"?xt=urn:btih:98f6577cff153349ab1e65b835b6a75f0e0cbfa6&amp;dn=My+Stepmother+Is+an+Alien+1988+720p+WEB-DL+SSloco&amp;tr=udp%3A%2F%2Ftracker.openbittorrent.com%3A80&amp;tr=udp%3A%2F%2Fopen.demonii.com%3A1337&amp;tr=udp%3A%2F%2Ftracker.coppersurfer.tk%3A6969&amp;tr=udp%3A%2F%2Fexodus.desync.com%3A6969","seeders":0,"leechers":1,"uploader":"myhoes14","files":1,"time":1433264586,"description":"Source:My.Stepmother.Is.an.Alien.1988.720p.WEB-DL.HDCLUB\n\n\nMedia Info\n\n\nFormat profile : Base Media\nCodec ID : isom\nFile size : 896 MiB\nDuration : 1h 48mn\nOverall bit rate mode : Variable\nOverall bit rate : 1 160 Kbps\nEncoded date : UTC 2015-05-02 21:21:34\nTagged date : UTC 2015-05-02 21:21:34\n\nVideo\nID : 1\nFormat : AVC\nFormat/Info : Advanced Video Codec\nFormat profile : &lt;a class=&quot;__cf_email__&quot; href=&quot;/cdn-cgi/l/email-protection&quot; data-cfemail=&quot;bdf5d4dad5fdf189938c&quot;&gt;[email&amp;#160;protected]&lt;/a&gt;&lt;script data-cfhash='f9e31' type=&quot;text/javascript&quot;&gt;\n/* &lt;![CDATA[ */!function(){try{var t=&quot;currentScript&quot;in document?document.currentScript:function(){for(var t=document.getElementsByTagName(&quot;script&quot;),e=t.length;e--;)if(t[e].getAttribute(&quot;data-cfhash&quot;))return t[e]}();if(t&amp;&amp;t.previousSibling){var e,r,n,i,c=t.previousSibling,a=c.getAttribute(&quot;data-cfemail&quot;);if(a){for(e=&quot;&quot;,r=parseInt(a.substr(0,2),16),n=2;a.length-n;n+=2)i=parseInt(a.substr(n,2),16)^r,e+=String.fromCharCode(i);e=document.createTextNode(e),c.parentNode.replaceChild(e,c)}t.parentNode.removeChild(t);}}catch(u){}}()/* ]]&gt; */&lt;/script&gt;\nFormat settings, CABAC : Yes\nFormat settings, ReFrames : 4 frames\nCodec ID : avc1\nCodec ID/Info : Advanced Video Coding\nDuration : 1h 48mn\nBit rate : 1 000 Kbps\nMaximum bit rate : 5 565 Kbps\nWidth : 1 280 pixels\nHeight : 718 pixels\nDisplay aspect ratio : 16:9\nFrame rate mode : Constant\nFrame rate : 23.976 fps\nColor space : YUV\nChroma subsampling : 4:2:0\nBit depth : 8 bits\nScan type : Progressive\nBits/(Pixel*Frame) : 0.045\nStream size : 772 MiB (86%)\nWriting library : x264 core 146 r2538 121396c\nEncoding settings : cabac=1 / ref=3 / deblock=1:-1:-1 / analyse=0x3:0x113 / me=hex / subme=7 / psy=1 / psy_rd=1.00:0.15 / mixed_ref=1 / me_range=16 / chroma_me=1 / trellis=1 / 8x8dct=1 / cqm=0 / deadzone=21,11 / fast_pskip=1 / chroma_qp_offset=-3 / threads=6 / lookahead_threads=1 / sliced_threads=0 / nr=0 / decimate=1 / interlaced=0 / bluray_compat=0 / constrained_intra=0 / bframes=3 / b_pyramid=2 / b_adapt=1 / b_bias=0 / direct=1 / weightb=1 / open_gop=0 / weightp=2 / keyint=240 / keyint_min=23 / scenecut=40 / intra_refresh=0 / rc_lookahead=40 / rc=2pass / mbtree=1 / bitrate=1000 / ratetol=1.0 / qcomp=0.60 / qpmin=0 / qpmax=69 / qpstep=4 / cplxblur=20.0 / qblur=0.5 / vbv_maxrate=62500 / vbv_bufsize=78125 / nal_hrd=none / filler=0 / ip_ratio=1.40 / aq=1:1.00\nEncoded date : UTC 2015-05-02 21:21:34\nTagged date : UTC 2015-05-02 21:21:57\nColor primaries : BT.709\nTransfer characteristics : BT.709\nMatrix coefficients : BT.709\nColor range : Limited\n\nAudio\nID : 2\nFormat : AAC\nFormat/Info : Advanced Audio Codec\nFormat profile : LC\nCodec ID : 40\nDuration : 1h 48mn\nBit rate mode : Variable\nBit rate : 156 Kbps\nMaximum bit rate : 251 Kbps\nChannel(s) : 2 channels\nChannel positions : Front: L R\nSampling rate : 48.0 KHz\nCompression mode : Lossy\nStream size : 120 MiB (13%)\nLanguage : English\nEncoded date : UTC 2015-05-02 21:21:50\nTagged date : UTC 2015-05-02 21:21:57\n\nMenu\n00:00:00.000 : 1\n00:06:06.000 : 2\n00:10:14.000 : 3\n00:17:48.000 : 4\n00:25:41.000 : 5\n00:34:11.000 : 6\n00:45:32.000 : 7\n00:52:40.000 : 8\n00:58:31.000 : 9\n01:05:35.000 : 10\n01:09:32.000 : 11\n01:13:48.000 : 12\n01:19:14.000 : 13\n01:26:57.000 : 14\n01:36:42.000 : 15\n01:41:56.000 : 16","torrent":{"xt":"urn:btih:98f6577cff153349ab1e65b835b6a75f0e0cbfa6","amp;dn":"My+Stepmother+Is+an+Alien+1988+720p+WEB-DL+SSloco","amp;tr":["udp%3A%2F%2Ftracker.openbittorrent.com%3A80","udp%3A%2F%2Fopen.demonii.com%3A1337","udp%3A%2F%2Ftracker.coppersurfer.tk%3A6969","udp%3A%2F%2Fexodus.desync.com%3A6969"],"infoHash":"98f6577cff153349ab1e65b835b6a75f0e0cbfa6","infoHashBuffer":{"type":"Buffer","data":[152,246,87,124,255,21,51,73,171,30,101,184,53,182,167,95,14,12,191,166]},"announce":[],"urlList":[]}}